<svg width="19" height="18" fill="none" xmlns="http://www.w3.org/2000/svg"><path d="M8.904 17.172c-.3 0-.6-.1-.8-.4-5.399-6.1-6.699-7.5-6.999-7.9C.405 7.97.005 6.77.006 5.57c0-3 2.401-5.4 5.501-5.4 1.3.001 2.5.501 3.5 1.302 1-.8 2.3-1.3 3.5-1.3 3 0 5.5 2.401 5.5 5.401-.001 1.3-.501 2.5-1.302 3.4l-7.001 7.899c-.2.2-.4.3-.8.3Zm-5.998-9.5c.3.4 3.499 4 6.098 6.9l6.202-6.998c.5-.5.7-1.2.7-2 0-1.8-1.5-3.3-3.3-3.3-1-.001-2 .499-2.7 1.299-.3.3-.6.4-.9.4-.3 0-.6-.2-.8-.4-.7-.8-1.7-1.3-2.7-1.301-1.8 0-3.3 1.5-3.3 3.3-.1.9.3 1.6.7 2.1-.1 0-.1 0 0 0Z" fill="#000"/></svg>