<svg width="142" height="71" fill="none" xmlns="http://www.w3.org/2000/svg"><g clip-path="url(#a)"><path d="m141.012.039-140-.026 60.35 65.711c5.274 5.801 13.999 5.803 19.275.004L141.012.039Z" fill="#81B3D3"/><path d="m38.243.52 32.559 37.906L103.272.732 38.243.52Z" fill="#23A9E1"/><path d="m62.995 14.725 17.55.003c-1.318-.8-4.463-4.601-6.086-3.201-.101.1-4.97-5.701-8.115-2.902-2.74 2.5-4.058-.3-7.102 1.599-3.653 2.4 2.028 3.7 3.753 4.5Zm27.087-3.495-9.942.098c3.958-4.5 5.682-4 9.942-.098Z" fill="#fff"/><path d="M100.026 3.631v-2.4h2.131l-2.131 2.4Zm-49.915 9.391c.101.1 2.435-2.4 6.19-4.899 3.449-2.3 8.725-4.898 14.609-4.897 5.884.001 11.26 2.702 14.709 5.003 3.753 2.4 6.086 4.8 6.188 4.9l-2.537 3c-4.566.6-7.813 3.899-12.276 3.198-2.232-.4-2.333-1.6-2.942-2.9-.507-1-1.318-.8-2.333-1.2-.913-.401-1.521-1.101-3.449-.702-1.623.4-1.827 2.9-3.957 2.8-1.116-.1-1.217-1.6-2.84-3.6-4.158-4.902-7.952-4.292-10.59.208l-.772-.91ZM41.59 1.221v1.9l-1.623-1.9h1.623Zm54.681.01h3.247v3l-3.248 3.8.001-6.8ZM92.111 12.63l.002-11.4h3.55v7.4l-3.552 4Zm-.505-10.4-.002 9.9a26.334 26.334 0 0 0-3.652-3l3.654-6.9Zm-4.16-.3-.001 6.8c-.507-.301-.913-.701-1.522-1.001-.71-.4-1.42-.9-2.231-1.3l3.754-4.5Zm-4.463-.202-.001 4.3c-1.015-.5-2.13-1-3.145-1.5l3.145-2.8Zm.608-.5 3.754.001-3.754 4.6v-4.6Zm4.363.001h3.652l-3.654 7.1.002-7.1Zm-8.928-.001h3.957l-3.552 3.1c-.101 0-.203-.1-.304-.1l-.1-3Zm-.507.4v2.4c-1.015-.4-2.03-.7-3.145-.901l3.145-1.5Zm-4.261-.001v1.3c-.71-.1-1.42-.2-2.232-.3l2.232-1Zm-6.899-.002 2.232 1c-.811 0-1.522.1-2.232.3v-1.3Zm-4.16 0 3.146 1.5c-1.116.2-2.13.5-3.145.9v-2.4Zm3.653 1.2-3.348-1.6h3.348v1.6Zm3.55-.4-2.84-1.3h2.84v1.3Zm.711-1.199h2.942l-2.942 1.3v-1.3Zm3.754 0 3.246.001-3.247 1.6v-1.6Zm-12.58 3.098-3.55-3.1h3.956v3l-.407.1Zm-3.652-2.6 3.144 2.7c-1.116.4-2.13.9-3.145 1.5v-4.2Zm-4.363.199 3.652 4.5a22.9 22.9 0 0 0-3.653 2.4l.001-6.9Zm-4.26.3 3.65 7c-1.319 1-2.536 2-3.652 3.2l.001-10.2Zm3.752 6-3.65-7.1h3.651l-.001 7.1Zm4.363-2.5-3.753-4.6h3.754l-.001 4.6ZM45.344 7.522l-3.246-3.8v-2.5h3.247l-.001 6.3Zm.61-6.3 3.55.001-.002 11.2-3.55-4.2.002-7ZM37.534.02l-.003 14.6L71 54.526l33.486-39.494.003-15L37.534.02Z" fill="#491213"/><path d="m68.366 46.026 2.638-4.2 2.637 4.2-2.638 4.2-2.637-4.2Z" fill="#23A9E1"/><path d="M76.281 30.627c-3.449-2-2.637-3.5.204-4.9 1.522-.7 4.87-3.4 6.19-2.499l-6.394 7.399Zm-2.333 2.5c-2.03-.1-4.363-.401-6.392.098 1.218.3 4.26 1.201 1.42 1.9 1.014 1.4 2.638 1.301 3.652.101-.405-.2-.71-.5-1.014-.7 1.116-.3 2.13-.9 2.334-1.4Zm1.217-1.6c-.913-.8-1.927-.8-2.739 0-1.217-2.1-5.478-1.402-7.507-1.702 1.116 2.6 9.739 3.102 10.246 1.702Zm-6.898-2.201c-1.623-.5-6.898-.402-3.449-1.801 1.116-.4 6.797.101 3.45 1.8Zm2.03-3c-.507-1.1.406-2.4 1.725-1.4 1.217.8-.61 2-1.725 1.4Zm-2.942.1c-2.334.699-5.377-.802-1.623-1.501 2.333-.5 4.768.5 1.623 1.5.101 0-.102 0 0 0Zm-2.637-6.201c-.507 1.6-1.522 1.9-1.42 0 .102-2.3 1.623-1.7 3.247-2.6 1.319-.7 2.03-3.4 4.362-1.799 1.015.7 2.232.1 2.536 1.2 0-.1-2.943 6.7-1.32 6.7-3.246 0-1.825-3.8-.607-6.4-1.218.6-3.146 4.3-1.523 5-.812 1.1-3.45 2.6-4.768 1.499-1.116-1-.507-2.3-.507-3.6Zm-4.058 2.8c-5.681-.002-1.825-8.601.103-8.1 2.231.7 1.926 8.2-.103 8.1Zm-6.289-8.202c-2.637-.1-1.521-2.6.305-3.1 1.725-.5 5.275 1.101 6.493 2.201-1.827.6-4.16.5-6.189.599-.202-2-.71-1.3-.609.3Z" fill="#DC6243"/><path d="M73.848 25.827c-2.942-3.001 4.363-2.7 5.58-3.8.812.3 7.103-5.398 8.624-4.998-1.116 1.3-3.45 5.3-5.073 5.3-1.319-.001-2.638-.201-3.652.699-1.522 1.4-3.957 2.099-5.48 2.799Z" fill="#F49774"/><path d="M74.761 22.227c-1.623.9-3.144-2.5-.304-2.2 1.827.2 3.754-.2 5.479.1-1.32 1.5-3.146 2.3-5.175 2.1Z" fill="#F4B1A4"/><path d="M52.849 20.923c.304.4.608.8.507 1.4 0 .4-.61 1-.204 1.2l1.523-1.8c-.406-.1-3.55-3.8-3.55-4.2l-2.131 1.099c.101.4.812 0 1.217 0 .508 0 .913.4 1.319.7-1.116.9-3.856 3.3-4.16 3.3-.101 0-.71-.4-.71 0 0 .2.608.7.71.8l1.42 1.7c.406-.2-.102-.5.101-.8.102-.2 3.247-2.7 3.958-3.4ZM49.4 16.422c.305-.1.406.3.609 0l-1.623-1.9c-.203-.3-.507-.6-.507 0 .101.4-4.059 3.699-4.262 3.799-.304.1-.507-.3-.71.1.507.6.913 1.1 1.42 1.7.203.2.304.4.507.6.203.2.102-.4.102-.4-.102-.3.304-.6.608-.8 1.015-1 3.552-3.1 3.856-3.099Zm-5.782-.601c-1.116.3-2.435-.1-2.74-1.3-.405-1.2.407-2.4 1.32-3.1.913-.7 2.334-.6 2.84.5.203.5.102 1.1-.101 1.6-.102.3-.406.6 0 .8.608-.7 1.116-1.4 1.725-2.1-.71-.4-1.014-1.1-1.522-1.7-.608-.7-1.318-1.4-2.333-1.5-1.927-.3-3.652 1.7-3.855 3.4-.102.899.202 1.8.81 2.6.508.6 1.218 1.1 1.623 1.8.203.1 1.827-.7 2.131-.8.203 0 .102-.1.102-.2-.508.2 0 0 0 0Zm25.865 23.605c-.71-.5-2.637-3-3.043-3.5l-.203-.3-.203.1c-.101.1.102.4 0 .6-.507.799-3.754 3.198-3.957 3.398-.406.2-.812-.1-1.015.2.508.6 1.826 2.3 2.029 2.3.304 0 .102-.5.102-.6.101-.2 1.724-1.6 2.333-2.099.203-.2.406.3.609.5.203.3.304.7.203 1-.102.2-.508.6-.203.8.405-.5 1.522-1.8 1.724-2 .204-.2-.405 0-.304-.1-.203.1-.507.2-.71 0-.101 0-.71-.7-.608-.8.304-.2.608-.6 1.014-.7.609-.1 1.014 1 1.116 1.4.101.4.101.8-.102 1.1-.101.3-.304.5 0 .6l1.42-1.9c0 .1-.1.1-.202 0-.102 0 .101.1 0 0Zm-9.332-8.902c-.71 0-1.42.3-2.029.8-1.42 1.2-1.624 3.3-.508 4.8 1.318 1.7 3.449 1.9 5.174.7 1.42-1.2 1.623-3.3.508-4.8-.812-1-2.029-1.5-3.145-1.5Zm1.217 1.4c.913-.1 1.522.8 1.116 1.8-.406 1-1.42 2-2.435 2.4-1.218.5-2.03-.5-1.522-1.7.406-1 1.42-2 2.435-2.4.102 0 .203-.1.406-.1Zm-2.84-4.6c.305 0 .61.4.812 0l-1.42-1.7c-.406.2 0 .4-.101.6-.203.3-1.725.5-2.131.6.101-.4.609-1.7.812-1.8.406-.3.609.3.812-.1l-1.826-2.1c-.203-.2-.406-.7-.609-.401 0 0 0 1-.101 1.1-.102.2-.61 2.4-1.218 2.9-.305.3-1.522 1.3-1.827 1.4-.304.1-.507-.4-.811 0l1.623 1.9c.101.1.405.6.507.6.304.1 0-.6.101-.7.102-.3 1.624-1.8 2.334-1.9.913-.2 2.029-.5 3.044-.4.202 0-.203 0 0 0Zm24.55 6.704c.101.4.203.9.101 1.3-.101.6-.609 1.9-1.42 1.5-.812-.4-1.42-1.1-2.13-1.7.507-.6 1.014-1.1 1.927-.8.203.1.406 0 .203-.2-.304-.2-2.029-1.3-2.13-1.2-.203.2.304.6.101 1-.101.3-.406.5-.609.8-.507-.4-1.217-.8-.71-1.5.406-.4.812-.8 1.42-.9.407-.1 1.218.3 1.32-.1-.71-.3-1.42-.7-2.13-1 .1.5-2.233 2.9-2.74 3.499-.102.1-.406.4-.406.5 0 .3.406.1.406.1.304-.1 4.463 3.3 4.564 3.6.102.2-.101.4 0 .5 0 0 .102.1.203.1.304-.3 2.943-3.899 3.551-3.998l-1.52-2.4c-.407.2-.102.7-.001.9Zm-4.059 4.4c-1.319-.9-3.652.799-4.058.999-.71.3-1.217-.4-.811-1 .304-.5.913-.8 1.521-.8.203 0 .913.1.914 0 .101-.1.101-.1 0-.2-.609-.4-1.116-.8-1.725-1.1-.101.7-.913 1.1-1.319 1.6-.507.6-1.015 1.3-1.015 2s.406 1.4 1.116 1.7c.71.4 1.522.1 2.232-.3.406-.3.811-.6 1.217-.8.609-.3 1.522 0 1.319.8-.203.7-.913 1.3-1.623 1.5-.406.1-.812.1-1.218-.1-.304-.1-.609-.5-.812-.1l2.334 1.6c.101-.5.304-.7.71-1 .507-.4.913-.9 1.319-1.4.812-.9 1.116-2.5-.1-3.4ZM96.88 10.33c0 .1 0 .1 0 0l-.913 1-.811 1c-.203.2-.305.3 0 .5.507-.3 3.55 4.8 3.346 5.5-.507.2-4.564-3.3-4.666-3.5 0-.1.203-.7-.101-.6-.102 0-.507.6-.609.7l-.609.699c.203.3.304 0 .609 0 .203.1 1.217.9 1.521 1.1-.507 0-1.724.1-1.927.1-.609.1-.304-.4-.71-.6l-1.522 1.8-.913 1v.1c.202.2.1.1.405 0 .305-.1 4.362 3.2 4.463 3.4.203.3-.101.6.305.8l1.217-1.4c.102-.1.102-.1 0-.1-.304-.2-.304.1-.71.1-.304-.1-2.942-2.2-3.854-3l5.376-.2c.203 0 .71.6.71.8-.101.2-.304.4 0 .5.305-.399.61-.699.914-1.099l.101-.2c.102 0 .102-.1.102-.2l.101-.1c.305-.3 1.218-1.3 1.116-1.4-.304-.3-.406.3-.811 0-.203-.2-.812-1.2-.913-1.4-.203-.3.406-.6.609-.7.507-.3 2.13-.8 2.333.2 0 .2-.203.4-.102.5 0 0 .102.2.203.1l2.131-2.599-.203-.2c-.507.5-5.579-1.501-5.883-1.801-.102-.2-.102-.8-.305-.8Zm-.203 2.6c.812.3 1.522.6 2.333 1l-.609.3c-.202.1-.405.3-.608.5l-1.116-1.8ZM89.98 20.63c-1.116-.1-2.232.4-3.044 1.299-1.217 1.5-1.116 3.7.405 4.9 1.522 1.2 3.754.9 4.971-.499 1.218-1.5 1.117-3.7-.405-4.9-.507-.4-1.217-.7-1.927-.8Zm-1.42 1.6c.608 0 1.318.4 1.724.7.811.5 2.231 1.7 1.521 2.7 0-.1.102-.1-.101.1-.812.8-2.232.1-2.942-.5-.71-.5-2.029-1.701-1.217-2.7.304-.2.609-.3 1.014-.3Zm-3.146 4.299c-1.218-.1-2.435.5-3.348 1.6-.61.799-1.32 1.499-1.928 2.299.203.3.507-.1.811.1.305.2 4.159 3.3 4.159 3.5.101.3-.203.4.101.6.102.1 2.943-3.399 3.247-3.999a2.94 2.94 0 0 0-.81-3.2c.1.1.202.1 0 0-.812-.6-1.522-.9-2.232-.9Zm-1.117 1.6h.305c1.42.4 3.449 2.1 2.13 3.6l-.406.4c-.203.2-4.26-3-4.058-3.2.406-.5 1.32-.9 2.03-.8Z" fill="#fff"/></g><defs><clipPath id="a"><path fill="#fff" transform="translate(1.012 .013)" d="M0 0h140v70H0z"/></clipPath></defs></svg>