<svg width="76" height="73" fill="none" xmlns="http://www.w3.org/2000/svg"><path d="M30.119 65.112h16.064v-23.8H30.119v23.8Zm2.911-20.9h10.14v18H33.03v-18Z" fill="#83B3D3"/><path d="m73.392 39.412 2.108-2.1-9.94-9.9V.112H51.604v13.6L37.95.112.5 37.312l2.108 2.1 7.832-7.8v37.6H6.424v2.9H70.58v-2.9h-5.12v-37.6l7.932 7.8Zm-10.844 29.8H13.351v-40.6l24.599-24.4 24.598 24.4v40.6Zm0-44.7-7.931-7.9v-13.6h7.931v21.5Z" fill="#83B3D3"/><path d="M30.32 27.212c0 4.3 3.513 7.7 7.73 7.7 4.318 0 7.832-3.5 7.832-7.7 0-4.3-3.514-7.7-7.832-7.7-4.217 0-7.73 3.4-7.73 7.7Zm7.83-5c2.711 0 5.02 2.2 5.02 4.9s-2.208 4.9-5.02 4.9c-2.71 0-5.02-2.2-5.02-4.9s2.21-4.9 5.02-4.9ZM20.48 41.312h-3.012v3.9h3.012v-3.9ZM26.404 41.312h-3.012v3.9h3.012v-3.9ZM20.48 47.312h-3.012v3.9h3.012v-3.9ZM26.404 47.312h-3.012v3.9h3.012v-3.9ZM52.508 41.312h-3.012v3.9h3.012v-3.9ZM58.432 41.312H55.42v3.9h3.012v-3.9ZM52.508 47.312h-3.012v3.9h3.012v-3.9ZM58.432 47.312H55.42v3.9h3.012v-3.9Z" fill="#83B3D3"/></svg>