<svg width="65" height="77" fill="none" xmlns="http://www.w3.org/2000/svg"><path d="M61.6 22.574H36.8c13.8-6.905 14.9-11.308 14.4-13.71-1.2-4.002-5.7-7.004-10-5.403-5.6 2.101-7.1 10.407-8.6 16.411-2-6.104-3.8-13.81-8.2-17.712-1.3-1.101-3.1-2.302-5.8-2.002-4 .4-9.8 5.404-7.5 11.008 2.3 5.404 9.7 8.806 14.6 11.508H3.4c-1.6 0-2.9 1.301-2.9 2.902v11.308c0 1.601 1.3 2.902 2.9 2.902h.3v36.325h57.8V39.687h.1c1.6 0 2.9-1.3 2.9-2.902V25.476c0-1.601-1.3-2.902-2.9-2.902ZM42.9 5.962c2.1-.3 5 1.301 5.3 3.203.4 2.802-3.4 5.303-5.1 6.404-2.5 1.701-4.9 2.602-7.3 4.103.9-3.703 2.5-13.01 7.1-13.71ZM20 15.97c-2.2-1.5-6.5-4.403-6.4-7.805.1-3.603 5.7-6.605 8.8-3.903 3.9 3.403 5.7 11.108 7.1 16.612-3.2-1.501-6.3-2.802-9.5-4.904Zm6 57.14H6.6V39.686H26v33.423Zm0-36.525H3.5V25.576H26v11.008Zm10.2 0V73.109H29V25.676h7.2v10.908Zm22.3 36.525H39.1V39.686h19.4v33.423Zm2.9-36.525H39.1V25.576h22.3v11.008Z" fill="#83B3D3"/></svg>