<svg width="75" height="71" fill="none" xmlns="http://www.w3.org/2000/svg"><path d="M70.576 46.812H4.61c-2.305 0-4.11 1.9-4.11 4.3v3.5c0 2.4 1.905 4.3 4.11 4.3h.903v1.1c0 5.5 4.31 10.1 9.624 10.1h44.712c5.313 0 9.624-4.5 9.624-10.1v-1.1h.902c2.306 0 4.11-1.9 4.11-4.3v-3.5c.201-2.3-1.704-4.3-3.91-4.3Zm-3.91 13.2c0 3.9-3.008 7-6.717 7H15.137c-3.71 0-6.717-3.2-6.717-7v-1.1h58.246v1.1Zm5.113-5.4c0 .7-.602 1.3-1.203 1.3H4.51c-.702 0-1.203-.6-1.203-1.3v-3.5c0-.7.602-1.3 1.203-1.3h65.965c.702 0 1.203.6 1.203 1.3.1 0 .1 3.5.1 3.5ZM16.14 38.512l5.413 4.1 5.313-4.1 5.313 4.1 5.314-4.1 5.413 4.1 5.314-4.1 5.313 4.1 5.413-4.1 5.314 4.1 6.215-4.7-1.704-2.5-4.511 3.4-5.314-4.1-5.413 4.1-5.313-4.1-5.314 4.1-5.413-4.1-5.314 4.1-5.313-4.1-5.313 4.1-5.414-4.1-5.313 4.1-4.511-3.4-1.705 2.5 6.216 4.7 5.313-4.1ZM8.52 31.612h60.953c0-.6.1-1.2.1-1.9v-1.2c-.702-15.7-14.737-28.4-31.98-28.4-17.344 0-31.379 12.7-32.08 28.5v1.2c0 .6-.005 1.2.095 1.8H8.52Zm29.073-28.5c15.64 0 28.471 11.3 29.073 25.5H8.52c.602-14.1 13.434-25.5 29.073-25.5Z" fill="#83B3D3"/><path d="M37.593 17.412c1.052 0 1.905-.896 1.905-2 0-1.105-.853-2-1.905-2s-1.905.895-1.905 2c0 1.104.853 2 1.905 2ZM29.773 12.312c1.052 0 1.905-.896 1.905-2 0-1.105-.853-2-1.905-2s-1.904.895-1.904 2c0 1.104.852 2 1.904 2ZM45.312 12.312c1.052 0 1.905-.896 1.905-2 0-1.105-.853-2-1.905-2s-1.904.895-1.904 2c0 1.104.852 2 1.904 2Z" fill="#83B3D3"/></svg>